<svg width="56" height="136" viewBox="0 0 56 136" fill="none" xmlns="http://www.w3.org/2000/svg">
<rect x="27.5" width="1" height="80" fill="#D1D1DF"/>
<rect x="0.5" y="80.5" width="55" height="55" rx="27.5" fill="#FAFAFA"/>
<rect x="0.5" y="80.5" width="55" height="55" rx="27.5" stroke="#D1D1DF"/>
<path d="M23.052 114.176C22.0387 114.176 21.148 113.936 20.38 113.456C19.6227 112.976 19.0307 112.304 18.604 111.44C18.188 110.565 17.98 109.552 17.98 108.4C17.98 107.237 18.188 106.224 18.604 105.36C19.0307 104.496 19.6227 103.824 20.38 103.344C21.148 102.864 22.0387 102.624 23.052 102.624C24.0653 102.624 24.9507 102.864 25.708 103.344C26.476 103.824 27.068 104.496 27.484 105.36C27.9107 106.224 28.124 107.237 28.124 108.4C28.124 109.552 27.9107 110.565 27.484 111.44C27.068 112.304 26.476 112.976 25.708 113.456C24.9507 113.936 24.0653 114.176 23.052 114.176ZM23.052 111.936C23.5747 111.936 24.0227 111.797 24.396 111.52C24.78 111.232 25.0733 110.821 25.276 110.288C25.4893 109.755 25.596 109.125 25.596 108.4C25.596 107.664 25.4893 107.035 25.276 106.512C25.0733 105.979 24.78 105.573 24.396 105.296C24.0227 105.008 23.5747 104.864 23.052 104.864C22.5293 104.864 22.076 105.008 21.692 105.296C21.3187 105.573 21.0253 105.979 20.812 106.512C20.6093 107.035 20.508 107.664 20.508 108.4C20.508 109.125 20.6093 109.755 20.812 110.288C21.0253 110.821 21.3187 111.232 21.692 111.52C22.076 111.797 22.5293 111.936 23.052 111.936ZM29.1434 114V112.24L33.8794 107.552C34.0607 107.381 34.2047 107.216 34.3114 107.056C34.418 106.885 34.498 106.715 34.5514 106.544C34.6047 106.373 34.6314 106.203 34.6314 106.032C34.6314 105.669 34.4714 105.371 34.1514 105.136C33.842 104.891 33.4527 104.768 32.9834 104.768C32.482 104.768 32.0127 104.875 31.5754 105.088C31.138 105.291 30.6634 105.643 30.1514 106.144L28.7754 104.464C29.4154 103.856 30.0927 103.397 30.8074 103.088C31.5327 102.779 32.2847 102.624 33.0634 102.624C33.8634 102.624 34.5567 102.763 35.1434 103.04C35.7407 103.307 36.2047 103.685 36.5354 104.176C36.866 104.656 37.0314 105.221 37.0314 105.872C37.0314 106.224 36.978 106.565 36.8714 106.896C36.7754 107.216 36.6207 107.531 36.4074 107.84C36.194 108.149 35.9167 108.469 35.5754 108.8L32.3434 111.92L37.1914 111.904V114H29.1434Z" fill="#87879D"/>
</svg>
